<svg width="652" height="491" viewBox="0 0 652 491" fill="none" xmlns="http://www.w3.org/2000/svg">
<g clip-path="url(#clip0_11_31)">
<g filter="url(#filter0_dd_11_31)">
<path d="M518.277 150.636V347H470.912V194.933H469.761L425.848 221.78V180.743L474.268 150.636H518.277Z" fill="#00714A"/>
</g>
<g filter="url(#filter1_dddd_11_31)">
<path d="M523.277 151.636V348H475.912V195.933H474.761L430.848 222.78V181.743L479.268 151.636H523.277Z" fill="#2c97e4"/>
</g>
<mask id="mask0_11_31" style="mask-type:luminance" maskUnits="userSpaceOnUse" x="0" y="0" width="652" height="491">
<path d="M652 0H0V491H652V0Z" fill="white"/>
</mask>
<g mask="url(#mask0_11_31)">
<path opacity="0.18" d="M37.3121 347.537C26.5743 339.244 17.7171 328.772 11.3239 316.81C4.93083 304.849 1.14695 291.67 0.221604 278.141C-0.70374 264.612 1.25046 251.041 5.95544 238.322C10.6604 225.603 18.0094 214.024 27.5182 204.349C41.7356 190.019 60.1127 180.807 75.8823 168.4C103.153 147.077 123.346 116.277 153.768 99.9933C190.398 80.3753 234.789 85.5551 275.02 95.3408C315.251 105.127 355.668 119.146 396.923 115.61C421.493 113.486 445.148 105.173 469.485 101.125C493.822 97.0778 520.519 97.8066 540.883 111.981C570.528 132.747 577.575 174.712 601.897 201.774C613.677 214.894 629.323 224.23 639.753 238.498C656.531 261.435 656.097 295.879 638.744 318.381C616.518 347.149 576.411 351.709 544.064 367.527C526.06 376.336 509.918 389.037 491.292 396.419C452.148 411.927 408.114 401.832 367.976 389.301C327.838 376.77 286.49 361.696 244.939 367.837C206.136 373.606 171.167 397.536 132.038 401.165C113.878 402.855 93.1419 399.614 82.0442 383.95C70.1084 367.155 53.4697 359.944 37.3121 347.537Z" fill="#2c97e4"/>
<path d="M47.8359 258.659C58.3748 246.95 58.3748 246.95 70.3262 232.899L121.189 173.425C132.442 160.538 136.897 154.691 142.919 145.51H191.035C189.659 158.418 189.032 171.394 189.157 184.374V260.535H195.955C203.75 260.462 211.531 259.835 219.237 258.659V301.276C211.616 300.34 203.944 299.874 196.265 299.88H189.234V311.589C189.01 321.225 189.638 330.862 191.112 340.388H142.748C144.079 330.691 144.707 320.911 144.626 311.123V299.647H78.3041C63.0623 299.647 56.5744 299.88 47.8359 300.578V258.659ZM144.859 233.845C144.859 223.3 145.325 210.428 146.272 200.115C141.615 206.675 138.061 211.358 131.744 219.314L97.5194 261.001H144.859V233.845Z" fill="#2c97e4"/>
<path d="M47.8359 258.659C58.3748 246.95 58.3748 246.95 70.3262 232.899L121.189 173.425C132.442 160.538 136.897 154.691 142.919 145.51H191.035C189.659 158.418 189.032 171.394 189.157 184.374V260.535H195.955C203.75 260.462 211.531 259.835 219.237 258.659V301.276C211.616 300.34 203.944 299.874 196.265 299.88H189.234V311.589C189.01 321.225 189.638 330.862 191.112 340.388H142.748C144.079 330.691 144.707 320.911 144.626 311.123V299.647H78.3041C63.0623 299.647 56.5744 299.88 47.8359 300.578V258.659ZM144.859 233.845C144.859 223.3 145.325 210.428 146.272 200.115C141.615 206.675 138.061 211.358 131.744 219.314L97.5194 261.001H144.859V233.845Z" fill="url(#paint0_linear_11_31)"/>
<path d="M308.654 199.929C313.31 200.704 317.641 203.558 322.313 204.581C326.395 205.512 330.694 205.031 334.73 206.458C342.258 209.125 347.147 218.198 348.218 227.301C349.289 236.404 347.38 245.616 345.207 254.456C339.495 277.75 331.734 301.012 317.765 318.676C316.787 319.901 315.608 321.188 314.164 321.157C313.162 321.02 312.226 320.582 311.479 319.901C308.546 317.895 305.863 315.547 303.486 312.907C299.76 308.425 297.603 302.516 295.725 296.654C290.432 280.153 280.328 269.701 278.45 252.207C276.401 233.861 286.443 196.269 308.654 199.929Z" fill="#ffff"/>
<path d="M293.631 211.684C291.649 211.327 289.605 211.696 287.873 212.723C286.056 213.839 284.487 215.315 283.262 217.059C282.037 218.803 281.182 220.779 280.749 222.866C279.908 227.047 279.756 231.337 280.299 235.567C281.361 247.981 283.77 260.242 287.485 272.136C288.571 275.578 285.467 283.751 287.718 286.574C289.549 288.869 288.633 302.656 291.024 304.362C297.651 309.138 311.419 306.502 318.046 311.278C326.629 317.482 326.055 301.105 324.689 294.359C323.137 286.837 311.481 288.156 302.556 262.753C290.682 228.945 296.673 212.382 293.631 211.684Z" fill="url(#paint1_linear_11_31)"/>
<path d="M258.055 321.08C250.581 313.719 244.761 304.854 240.982 295.072C234.807 277.871 231.712 259.718 231.84 241.445C231.84 216.864 237.707 191.337 246.616 176.589C260.911 152.691 285.279 139.586 314.816 139.586C337.555 139.586 357.469 147.34 371.764 161.298C379.237 168.652 385.057 177.513 388.837 187.29C395.025 204.567 398.114 222.8 397.963 241.15C397.963 265.746 392.112 291.505 383.203 306.285C369.14 329.733 344.539 342.884 314.77 342.884C291.798 342.884 272.35 335.347 258.055 321.08ZM279.785 239.584C279.785 281.456 291.736 303.044 314.94 303.044C338.145 303.044 349.63 281.968 349.63 240.281C349.63 200.239 337.446 179.163 314.708 179.163C292.745 179.163 279.847 201.402 279.847 239.584H279.785Z" fill="#2c97e4"/>
<path d="M258.055 321.08C250.581 313.719 244.761 304.854 240.982 295.072C234.807 277.871 231.712 259.718 231.84 241.445C231.84 216.864 237.707 191.337 246.616 176.589C260.911 152.691 285.279 139.586 314.816 139.586C337.555 139.586 357.469 147.34 371.764 161.298C379.237 168.652 385.057 177.513 388.837 187.29C395.025 204.567 398.114 222.8 397.963 241.15C397.963 265.746 392.112 291.505 383.203 306.285C369.14 329.733 344.539 342.884 314.77 342.884C291.798 342.884 272.35 335.347 258.055 321.08ZM279.785 239.584C279.785 281.456 291.736 303.044 314.94 303.044C338.145 303.044 349.63 281.968 349.63 240.281C349.63 200.239 337.446 179.163 314.708 179.163C292.745 179.163 279.847 201.402 279.847 239.584H279.785Z" fill="url(#paint2_linear_11_31)"/>
<path d="M53.0977 257.79C63.6521 246.082 63.6521 246.082 75.6034 232.031L126.466 172.541C134.405 163.798 141.669 154.466 148.196 144.626H196.312C194.936 157.539 194.309 170.52 194.434 183.506V259.62H201.232C209.027 259.54 216.807 258.913 224.514 257.744V300.361C216.894 299.412 209.222 298.941 201.543 298.949H194.512V310.658C194.286 320.294 194.914 329.932 196.39 339.457H148.025C149.35 329.801 149.978 320.063 149.904 310.317V298.841H83.5658C68.3395 298.841 61.8361 299.073 53.0977 299.787V257.79ZM150.136 232.977C150.136 222.431 150.602 209.56 151.533 199.262C146.877 205.806 143.338 210.49 137.005 218.461L102.859 260.148H150.136V232.977Z" fill="#2c97e4"/>
<path d="M263.318 321.948C255.845 314.593 250.025 305.733 246.244 295.956C240.053 278.758 236.943 260.605 237.056 242.329C237.056 217.748 242.923 192.221 251.832 177.457C266.127 153.574 290.495 140.47 320.032 140.47C342.755 140.47 362.684 148.224 376.98 162.182C384.457 169.533 390.278 178.394 394.053 188.174C400.276 205.46 403.387 223.71 403.241 242.08C403.241 266.661 397.39 292.436 388.481 307.215C374.419 330.633 349.802 343.737 320.048 343.737C297.076 343.722 277.628 336.231 263.318 321.948ZM285.171 240.53C285.171 282.402 297.123 303.99 320.327 303.99C343.298 303.99 355.017 282.914 355.017 241.243C355.017 201.185 342.817 180.109 320.094 180.109C298.008 180.047 285.171 202.286 285.171 240.53Z" fill="#2c97e4"/>
<path d="M354.475 256.441C354.475 256.441 384.306 259.078 397.934 240.933C403.366 233.737 391.26 199.836 391.26 199.836L377.493 224.463L355.763 229.395L354.475 256.441Z" fill="url(#paint3_linear_11_31)"/>
<path d="M284.472 203.403C283.668 203.696 282.89 204.054 282.144 204.473C281.443 204.827 280.829 205.33 280.343 205.946C280.106 206.258 279.953 206.626 279.899 207.014C279.845 207.403 279.891 207.798 280.033 208.164C280.348 208.649 280.803 209.029 281.337 209.253C281.871 209.477 282.461 209.535 283.029 209.42C284.938 209.234 286.707 208.288 288.616 207.962C290.525 207.636 292.326 206.318 290.975 204.287C289.625 202.255 286.381 202.689 284.472 203.403Z" fill="#F7AF87"/>
<path d="M290.557 207.962C287.763 207.233 284.845 208.458 282.331 209.87C281.738 210.158 281.209 210.565 280.779 211.064C280.52 211.27 280.334 211.553 280.247 211.872C280.161 212.191 280.179 212.529 280.298 212.837C280.418 213.146 280.633 213.408 280.912 213.585C281.191 213.763 281.519 213.846 281.85 213.824C282.421 213.881 282.998 213.845 283.557 213.716L287.422 213.049C288.321 212.944 289.196 212.692 290.014 212.304C291.768 211.281 293.258 208.629 290.557 207.962Z" fill="#F7AF87"/>
<path d="M285.171 213.095C284.37 213.4 283.592 213.763 282.843 214.181C282.135 214.557 281.519 215.087 281.042 215.732C280.809 216.043 280.659 216.408 280.605 216.793C280.55 217.178 280.594 217.57 280.732 217.934C281.048 218.42 281.502 218.799 282.036 219.023C282.57 219.247 283.16 219.305 283.728 219.19C285.637 219.004 287.406 218.058 289.315 217.732C291.224 217.407 293.025 216.104 291.674 214.057C290.324 212.01 287.049 212.382 285.171 213.095Z" fill="#F7AF87"/>
<path d="M291.193 217.003C288.322 216.771 285.668 218.554 283.433 220.322C282.889 220.719 282.431 221.22 282.082 221.796C281.869 222.045 281.741 222.356 281.715 222.683C281.69 223.011 281.77 223.337 281.942 223.617C282.115 223.896 282.372 224.113 282.676 224.238C282.98 224.362 283.315 224.386 283.634 224.308C284.201 224.266 284.757 224.129 285.28 223.905L288.958 222.555C289.831 222.294 290.654 221.89 291.395 221.361C292.932 220.09 293.972 217.267 291.193 217.003Z" fill="#F7AF87"/>
<path d="M373.456 173.223C368.931 171.068 363.953 170.031 358.943 170.199C358.097 170.158 357.25 170.296 356.46 170.603C356.073 170.771 355.744 171.049 355.513 171.401C355.281 171.754 355.157 172.166 355.156 172.588C355.307 173.323 355.728 173.976 356.336 174.418C358.169 176.083 360.228 177.482 362.451 178.574C363.123 178.839 363.735 179.234 364.252 179.737C364.505 179.992 364.668 180.322 364.715 180.677C364.763 181.033 364.693 181.394 364.516 181.707C364.003 182.42 362.824 182.451 362.436 183.257C361.924 184.265 363.212 185.258 364.329 185.444C365.517 185.647 366.737 185.535 367.868 185.118C368.66 184.711 369.526 184.469 370.414 184.405C371.291 184.593 372.117 184.969 372.835 185.506C375.287 186.902 382.908 186.948 382.427 182.699C381.977 178.76 376.591 174.852 373.456 173.223Z" fill="#F7AF87"/>
<path d="M335.957 207.419C335.957 207.419 370.274 221.547 374.201 220.819C378.128 220.09 371.78 186.251 371.78 186.251L383.483 180.9C383.483 180.9 409.869 233.163 388.264 240.762C374.903 245.229 360.427 245.076 347.163 240.328L335.957 207.419Z" fill="#ffff"/>
<path d="M354.211 187.801C354.09 190.837 353.373 193.82 352.1 196.579C350.854 198.635 349.147 200.374 347.113 201.657C345.079 202.941 342.775 203.735 340.381 203.977C338.637 204.089 336.904 204.333 335.197 204.705C334.406 204.867 333.667 205.223 333.047 205.74C332.427 206.256 331.944 206.919 331.643 207.667C330.262 211.017 328.834 214.414 324.379 213.282C323.961 213.189 323.554 213.048 323.168 212.863C321.768 212.206 320.508 211.284 319.459 210.149C318.152 208.827 317.015 207.348 316.075 205.744C315.589 205.003 315.261 204.168 315.113 203.294C315.021 202.22 315.148 201.139 315.485 200.115C317.037 193.912 317.286 186.886 319.49 180.838C321.746 174.707 326.057 169.545 331.689 166.229C337.262 162.988 345.007 162.942 349.741 167.361C352.331 169.952 353.971 173.34 354.397 176.977C354.77 180.579 354.707 184.214 354.211 187.801Z" fill="#F7AF87"/>
<path d="M316.462 180.047C316.757 177.132 316.741 174.169 317.315 171.3C317.75 168.369 319.22 165.69 321.46 163.748C322.022 163.302 322.65 162.946 323.322 162.693C323.928 162.476 324.564 162.352 325.185 162.182C327.009 161.532 328.749 160.667 330.369 159.607C332.825 158.136 335.512 157.088 338.316 156.506C340.211 156.216 342.126 156.081 344.043 156.102C347.561 156.04 351.095 156.009 354.644 156.009C355.477 155.947 356.313 156.085 357.081 156.412C357.925 156.933 358.54 157.753 358.804 158.708C359.479 160.848 359.479 163.143 358.804 165.283C358.117 167.4 357.206 169.438 356.087 171.362C355.542 172.575 354.773 173.675 353.821 174.604C352.999 173.177 352.269 171.704 351.524 170.215C349.15 172.681 345.409 173.317 341.994 173.053C338.58 172.789 335.227 171.905 331.812 171.859C331 171.773 330.179 171.848 329.396 172.079C328.613 172.311 327.884 172.694 327.249 173.208C326.484 174.099 325.951 175.164 325.697 176.31C324.979 178.862 324.393 181.451 323.943 184.064C323.539 183.304 321.91 181.319 321.056 181.35C320.81 181.374 320.571 181.448 320.355 181.568C320.138 181.688 319.949 181.851 319.799 182.048C318.386 183.599 319.085 189.29 320.389 190.934C320.65 191.183 320.847 191.492 320.963 191.833C320.989 192.062 320.97 192.293 320.906 192.514C320.842 192.735 320.735 192.941 320.59 193.121C320.232 193.544 319.777 193.874 319.264 194.085C318.75 194.295 318.194 194.38 317.641 194.33C316.276 194.33 316.012 191.725 315.872 190.763C315.298 187.181 316.12 183.568 316.462 180.047Z" fill="#606060"/>
<path d="M321.91 186.592C321.718 186.191 321.632 185.748 321.661 185.304C321.693 184.86 321.646 184.414 321.522 183.986C321.38 183.594 321.098 183.268 320.73 183.071C320.624 183.041 320.511 183.041 320.404 183.071C320.314 183.109 320.234 183.169 320.172 183.244C320.11 183.32 320.067 183.41 320.047 183.506C319.504 185.205 319.564 187.04 320.218 188.701C320.304 188.999 320.456 189.273 320.663 189.504C320.87 189.735 321.126 189.916 321.413 190.035C321.666 190.085 321.928 190.072 322.174 189.996C322.421 189.92 322.645 189.784 322.825 189.6C323.07 189.342 323.237 189.021 323.308 188.673C323.379 188.325 323.352 187.964 323.229 187.631C322.965 187.01 322.236 187.15 321.91 186.592Z" fill="url(#paint4_linear_11_31)"/>
<path d="M335.196 204.674C334.405 204.836 333.666 205.192 333.046 205.709C332.425 206.225 331.943 206.888 331.641 207.636C330.26 210.986 328.832 214.383 324.377 213.25C323.959 213.158 323.553 213.017 323.167 212.832C322.79 212.51 322.484 212.114 322.267 211.669C322.067 211.145 321.976 210.587 321.997 210.028C322.018 209.468 322.152 208.919 322.391 208.412C322.929 207.109 323.834 205.99 324.997 205.191C326.16 204.393 327.53 203.949 328.941 203.914C330.126 203.969 331.305 204.125 332.464 204.38C333.178 204.473 334.016 204.38 334.668 204.457C334.857 204.491 335.037 204.565 335.196 204.674Z" fill="url(#paint5_linear_11_31)"/>
</g>
<rect x="280.508" y="283.541" width="19.4592" height="112.269" rx="9.72962" transform="rotate(-130 280.508 283.541)" fill="#2c97e4"/>
</g>
<defs>
<filter id="filter0_dd_11_31" x="178.848" y="-32.3636" width="339.429" height="388.364" filterUnits="userSpaceOnUse" color-interpolation-filters="sRGB">
<feFlood flood-opacity="0" result="BackgroundImageFix"/>
<feColorMatrix in="SourceAlpha" type="matrix" values="0 0 0 0 0 0 0 0 0 0 0 0 0 0 0 0 0 0 127 0" result="hardAlpha"/>
<feOffset dx="-94" dy="-58"/>
<feGaussianBlur stdDeviation="33.5"/>
<feColorMatrix type="matrix" values="0 0 0 0 0 0 0 0 0 0 0 0 0 0 0 0 0 0 0.05 0"/>
<feBlend mode="normal" in2="BackgroundImageFix" result="effect1_dropShadow_11_31"/>
<feColorMatrix in="SourceAlpha" type="matrix" values="0 0 0 0 0 0 0 0 0 0 0 0 0 0 0 0 0 0 127 0" result="hardAlpha"/>
<feOffset dx="-168" dy="-104"/>
<feGaussianBlur stdDeviation="39.5"/>
<feColorMatrix type="matrix" values="0 0 0 0 0 0 0 0 0 0 0 0 0 0 0 0 0 0 0.01 0"/>
<feBlend mode="normal" in2="effect1_dropShadow_11_31" result="effect2_dropShadow_11_31"/>
<feBlend mode="normal" in="SourceGraphic" in2="effect2_dropShadow_11_31" result="shape"/>
</filter>
<filter id="filter1_dddd_11_31" x="183.848" y="-31.3636" width="356.429" height="402.364" filterUnits="userSpaceOnUse" color-interpolation-filters="sRGB">
<feFlood flood-opacity="0" result="BackgroundImageFix"/>
<feColorMatrix in="SourceAlpha" type="matrix" values="0 0 0 0 0 0 0 0 0 0 0 0 0 0 0 0 0 0 127 0" result="hardAlpha"/>
<feOffset dx="-10" dy="-6"/>
<feGaussianBlur stdDeviation="13.5"/>
<feColorMatrix type="matrix" values="0 0 0 0 0 0 0 0 0 0 0 0 0 0 0 0 0 0 0.1 0"/>
<feBlend mode="normal" in2="BackgroundImageFix" result="effect1_dropShadow_11_31"/>
<feColorMatrix in="SourceAlpha" type="matrix" values="0 0 0 0 0 0 0 0 0 0 0 0 0 0 0 0 0 0 127 0" result="hardAlpha"/>
<feOffset dx="-42" dy="-26"/>
<feGaussianBlur stdDeviation="24.5"/>
<feColorMatrix type="matrix" values="0 0 0 0 0 0 0 0 0 0 0 0 0 0 0 0 0 0 0.09 0"/>
<feBlend mode="normal" in2="effect1_dropShadow_11_31" result="effect2_dropShadow_11_31"/>
<feColorMatrix in="SourceAlpha" type="matrix" values="0 0 0 0 0 0 0 0 0 0 0 0 0 0 0 0 0 0 127 0" result="hardAlpha"/>
<feOffset dx="-94" dy="-58"/>
<feGaussianBlur stdDeviation="33.5"/>
<feColorMatrix type="matrix" values="0 0 0 0 0 0 0 0 0 0 0 0 0 0 0 0 0 0 0.05 0"/>
<feBlend mode="normal" in2="effect2_dropShadow_11_31" result="effect3_dropShadow_11_31"/>
<feColorMatrix in="SourceAlpha" type="matrix" values="0 0 0 0 0 0 0 0 0 0 0 0 0 0 0 0 0 0 127 0" result="hardAlpha"/>
<feOffset dx="-168" dy="-104"/>
<feGaussianBlur stdDeviation="39.5"/>
<feColorMatrix type="matrix" values="0 0 0 0 0 0 0 0 0 0 0 0 0 0 0 0 0 0 0.01 0"/>
<feBlend mode="normal" in2="effect3_dropShadow_11_31" result="effect4_dropShadow_11_31"/>
<feBlend mode="normal" in="SourceGraphic" in2="effect4_dropShadow_11_31" result="shape"/>
</filter>
<linearGradient id="paint0_linear_11_31" x1="-101.307" y1="99.6521" x2="407.478" y2="384.59" gradientUnits="userSpaceOnUse">
<stop stop-opacity="0"/>
<stop offset="0.99"/>
</linearGradient>
<linearGradient id="paint1_linear_11_31" x1="336.641" y1="243.244" x2="178.645" y2="340.552" gradientUnits="userSpaceOnUse">
<stop stop-opacity="0"/>
<stop offset="0.99"/>
</linearGradient>
<linearGradient id="paint2_linear_11_31" x1="458.838" y1="247.059" x2="-28.6051" y2="227.268" gradientUnits="userSpaceOnUse">
<stop stop-opacity="0"/>
<stop offset="0.99"/>
</linearGradient>
<linearGradient id="paint3_linear_11_31" x1="382.071" y1="267.406" x2="361.585" y2="170.689" gradientUnits="userSpaceOnUse">
<stop stop-opacity="0"/>
<stop offset="0.99"/>
</linearGradient>
<linearGradient id="paint4_linear_11_31" x1="320.296" y1="186.809" x2="324.315" y2="185.411" gradientUnits="userSpaceOnUse">
<stop stop-opacity="0"/>
<stop offset="0.99"/>
</linearGradient>
<linearGradient id="paint5_linear_11_31" x1="321.366" y1="202.348" x2="345.082" y2="221.799" gradientUnits="userSpaceOnUse">
<stop stop-opacity="0"/>
<stop offset="0.99"/>
</linearGradient>
<clipPath id="clip0_11_31">
<rect width="652" height="491" fill="white"/>
</clipPath>
</defs>
</svg>
