<svg width="829" height="378" viewBox="0 0 829 378" fill="none" xmlns="http://www.w3.org/2000/svg">
<path opacity="0.18" d="M47.4397 310.46C33.7881 300.592 22.5273 288.13 14.3993 273.897C6.27137 259.663 1.46067 243.98 0.284223 227.881C-0.892227 211.783 1.59227 195.633 7.57402 180.498C13.5558 165.362 22.899 151.584 34.9881 140.07C53.0637 123.018 76.4277 112.056 96.4766 97.2929C131.148 71.918 156.82 35.2675 195.497 15.8903C242.068 -7.45454 298.504 -1.29076 349.653 10.354C400.801 21.9988 452.186 38.6816 504.637 34.474C535.874 31.9457 565.948 22.0541 596.889 17.2375C627.831 12.4209 661.772 13.2883 687.662 30.1556C725.352 54.8661 734.311 104.804 765.232 137.007C780.21 152.619 800.101 163.729 813.362 180.707C834.693 208.001 834.141 248.988 812.079 275.766C783.821 309.999 732.831 315.424 691.707 334.248C668.816 344.73 648.294 359.844 624.614 368.629C574.847 387.083 518.864 375.069 467.834 360.158C416.805 345.247 364.235 327.309 311.41 334.617C262.077 341.482 217.618 369.957 167.871 374.276C144.783 376.287 118.42 372.43 104.311 353.791C89.1358 333.805 67.9819 325.224 47.4397 310.46Z" fill="#2c97e4"/>
<path d="M427.652 147.288C432.309 148.064 436.639 150.917 441.311 151.941C445.393 152.871 449.692 152.39 453.728 153.817C461.256 156.485 466.145 165.557 467.216 174.66C468.287 183.764 466.378 192.976 464.205 201.815C458.493 225.109 450.732 248.371 436.763 266.035C435.785 267.26 434.606 268.548 433.162 268.517C432.161 268.379 431.224 267.941 430.477 267.26C427.544 265.254 424.861 262.906 422.484 260.266C418.758 255.784 416.601 249.876 414.723 244.013C409.43 227.513 399.326 217.06 397.448 199.567C395.399 181.22 405.441 143.628 427.652 147.288Z" fill="#ffff"/>
<path d="M412.627 159.043C410.645 158.686 408.601 159.055 406.869 160.082C405.052 161.198 403.483 162.674 402.258 164.418C401.033 166.162 400.178 168.138 399.745 170.225C398.904 174.406 398.752 178.696 399.295 182.926C400.357 195.34 402.766 207.601 406.481 219.495C407.567 222.937 404.463 231.11 406.714 233.933C408.545 236.228 407.63 250.015 410.02 251.721C416.647 256.497 430.415 253.861 437.042 258.637C445.625 264.841 445.051 248.464 443.685 241.718C442.133 234.196 430.477 235.515 421.552 210.112C409.678 176.304 415.67 159.741 412.627 159.043Z" fill="url(#paint0_linear_10814_151640)"/>
<path d="M377.055 268.439C369.581 261.079 363.761 252.213 359.982 242.432C353.807 225.231 350.712 207.077 350.84 188.804C350.84 164.223 356.707 138.697 365.616 123.948C379.911 100.05 404.279 86.9453 433.816 86.9453C456.555 86.9453 476.469 94.6995 490.764 108.657C498.237 116.012 504.057 124.872 507.837 134.649C514.025 151.926 517.114 170.159 516.963 188.509C516.963 213.105 511.112 238.865 502.203 253.644C488.14 277.093 463.539 290.244 433.77 290.244C410.798 290.244 391.35 282.707 377.055 268.439ZM398.785 186.943C398.785 228.815 410.736 250.403 433.94 250.403C457.145 250.403 468.63 229.327 468.63 187.641C468.63 147.598 456.446 126.523 433.708 126.523C411.745 126.523 398.847 148.761 398.847 186.943H398.785Z" fill="#2c97e4"/>
<path d="M577.219 268.439C569.746 261.079 563.925 252.213 560.146 242.432C553.971 225.231 550.876 207.077 551.004 188.804C551.004 164.223 556.871 138.697 565.78 123.948C580.075 100.05 604.443 86.9453 633.98 86.9453C656.719 86.9453 676.633 94.6995 690.928 108.657C698.401 116.012 704.221 124.872 708.001 134.649C714.189 151.926 717.279 170.159 717.127 188.509C717.127 213.105 711.276 238.865 702.367 253.644C688.305 277.093 663.703 290.244 633.934 290.244C610.962 290.244 591.514 282.707 577.219 268.439ZM598.949 186.943C598.949 228.815 610.9 250.403 634.104 250.403C657.309 250.403 668.794 229.327 668.794 187.641C668.794 147.598 656.61 126.523 633.872 126.523C611.909 126.523 599.011 148.761 599.011 186.943H598.949Z" fill="#2c97e4"/>
<path d="M377.055 268.439C369.581 261.079 363.761 252.213 359.982 242.432C353.807 225.231 350.712 207.077 350.84 188.804C350.84 164.223 356.707 138.697 365.616 123.948C379.911 100.05 404.279 86.9453 433.816 86.9453C456.555 86.9453 476.469 94.6995 490.764 108.657C498.237 116.012 504.057 124.872 507.837 134.649C514.025 151.926 517.114 170.159 516.963 188.509C516.963 213.105 511.112 238.865 502.203 253.644C488.14 277.093 463.539 290.244 433.77 290.244C410.798 290.244 391.35 282.707 377.055 268.439ZM398.785 186.943C398.785 228.815 410.736 250.403 433.94 250.403C457.145 250.403 468.63 229.327 468.63 187.641C468.63 147.598 456.446 126.523 433.708 126.523C411.745 126.523 398.847 148.761 398.847 186.943H398.785Z" fill="url(#paint1_linear_10814_151640)"/>
<path d="M577.219 268.439C569.746 261.079 563.925 252.213 560.146 242.432C553.971 225.231 550.876 207.077 551.004 188.804C551.004 164.223 556.871 138.697 565.78 123.948C580.075 100.05 604.443 86.9453 633.98 86.9453C656.719 86.9453 676.633 94.6995 690.928 108.657C698.401 116.012 704.221 124.872 708.001 134.649C714.189 151.926 717.279 170.159 717.127 188.509C717.127 213.105 711.276 238.865 702.367 253.644C688.305 277.093 663.703 290.244 633.934 290.244C610.962 290.244 591.514 282.707 577.219 268.439ZM598.949 186.943C598.949 228.815 610.9 250.403 634.104 250.403C657.309 250.403 668.794 229.327 668.794 187.641C668.794 147.598 656.61 126.523 633.872 126.523C611.909 126.523 599.011 148.761 599.011 186.943H598.949Z" fill="url(#paint2_linear_10814_151640)"/>
<path d="M382.32 269.306C374.847 261.951 369.027 253.091 365.246 243.314C359.055 226.116 355.945 207.963 356.058 189.687C356.058 165.106 361.925 139.579 370.834 124.815C385.129 100.933 409.497 87.8281 439.034 87.8281C461.757 87.8281 481.686 95.5823 495.981 109.54C503.459 116.891 509.28 125.752 513.055 135.532C519.278 152.818 522.389 171.069 522.243 189.439C522.243 214.019 516.392 239.794 507.483 254.573C493.42 277.991 468.804 291.096 439.05 291.096C416.078 291.08 396.63 283.589 382.32 269.306ZM404.173 187.888C404.173 229.76 416.125 251.348 439.329 251.348C462.3 251.348 474.019 230.272 474.019 188.601C474.019 148.543 461.819 127.467 439.096 127.467C417.009 127.405 404.173 149.644 404.173 187.888Z" fill="#2c97e4"/>
<path d="M582.484 269.306C575.011 261.951 569.191 253.091 565.41 243.314C559.219 226.116 556.109 207.963 556.222 189.687C556.222 165.106 562.089 139.579 570.998 124.815C585.293 100.933 609.661 87.8281 639.198 87.8281C661.921 87.8281 681.85 95.5823 696.146 109.54C703.623 116.891 709.444 125.752 713.219 135.532C719.442 152.818 722.553 171.069 722.407 189.439C722.407 214.019 716.556 239.794 707.647 254.573C693.585 277.991 668.968 291.096 639.214 291.096C616.242 291.08 596.794 283.589 582.484 269.306ZM604.338 187.888C604.338 229.76 616.289 251.348 639.493 251.348C662.464 251.348 674.183 230.272 674.183 188.601C674.183 148.543 661.983 127.467 639.26 127.467C617.174 127.405 604.338 149.644 604.338 187.888Z" fill="#2c97e4"/>
<path d="M477.273 106.395C479.02 107.666 480.351 109.425 481.099 111.451C481.847 113.476 481.98 115.677 481.479 117.778C484.408 118.057 487.251 118.914 489.846 120.298C492.441 121.682 494.736 123.566 496.597 125.842C499.933 130.24 501.952 135.494 502.418 140.994C502.865 146.46 502.745 151.959 502.061 157.401C501.984 159.282 501.595 161.137 500.912 162.891C500.109 164.413 498.979 165.738 497.602 166.77C496.225 167.802 494.636 168.517 492.95 168.862C489.578 169.534 486.125 169.697 482.706 169.343L474.557 168.909C474.288 168.915 474.022 168.856 473.781 168.738C473.618 168.599 473.486 168.428 473.393 168.236C473.299 168.044 473.246 167.835 473.238 167.621C472.679 164.287 471.825 162.829 471.22 159.495C469.708 152.455 466.748 145.806 462.528 139.97C461.78 139.098 461.249 138.062 460.976 136.946C460.882 135.403 461.227 133.866 461.969 132.511C463.073 129.844 463.986 127.102 464.701 124.307C465.359 120.961 466.214 117.657 467.262 114.412C468.329 111.133 470.53 108.34 473.471 106.534" fill="url(#paint3_linear_10814_151640)"/>
<path d="M473.477 203.801C473.477 203.801 503.308 206.437 516.936 188.292C522.368 181.096 510.262 147.195 510.262 147.195L496.495 171.823L474.765 176.754L473.477 203.801Z" fill="url(#paint4_linear_10814_151640)"/>
<path d="M403.47 150.762C402.666 151.056 401.888 151.413 401.142 151.832C400.441 152.187 399.827 152.689 399.341 153.306C399.104 153.618 398.951 153.986 398.897 154.374C398.843 154.762 398.889 155.158 399.031 155.523C399.346 156.009 399.801 156.388 400.335 156.613C400.869 156.837 401.459 156.895 402.027 156.78C403.936 156.594 405.705 155.648 407.614 155.322C409.523 154.996 411.324 153.678 409.973 151.646C408.623 149.615 405.379 150.049 403.47 150.762Z" fill="#F7AF87"/>
<path d="M409.559 155.323C406.765 154.594 403.847 155.819 401.333 157.23C400.739 157.519 400.211 157.925 399.781 158.424C399.522 158.63 399.336 158.913 399.249 159.232C399.163 159.551 399.181 159.89 399.3 160.198C399.42 160.506 399.635 160.768 399.914 160.946C400.193 161.123 400.521 161.207 400.851 161.185C401.423 161.242 401.999 161.205 402.559 161.076L406.424 160.409C407.322 160.304 408.198 160.053 409.016 159.665C410.77 158.641 412.26 155.989 409.559 155.323Z" fill="#F7AF87"/>
<path d="M404.175 160.453C403.374 160.758 402.595 161.121 401.847 161.539C401.139 161.915 400.523 162.445 400.046 163.09C399.813 163.401 399.663 163.766 399.609 164.151C399.554 164.536 399.598 164.928 399.736 165.292C400.051 165.777 400.506 166.157 401.04 166.381C401.574 166.605 402.164 166.663 402.732 166.548C404.641 166.362 406.41 165.416 408.319 165.09C410.228 164.765 412.029 163.462 410.678 161.415C409.328 159.368 406.053 159.74 404.175 160.453Z" fill="#F7AF87"/>
<path d="M410.193 164.364C407.322 164.132 404.668 165.915 402.433 167.683C401.889 168.08 401.431 168.581 401.082 169.156C400.869 169.406 400.741 169.717 400.715 170.044C400.69 170.371 400.77 170.698 400.942 170.978C401.115 171.257 401.372 171.474 401.676 171.598C401.98 171.723 402.315 171.747 402.634 171.669C403.201 171.626 403.757 171.49 404.28 171.265L407.958 169.916C408.831 169.655 409.654 169.251 410.395 168.722C411.932 167.45 412.972 164.628 410.193 164.364Z" fill="#F7AF87"/>
<path d="M492.456 120.585C487.931 118.43 482.953 117.393 477.943 117.561C477.097 117.52 476.25 117.657 475.46 117.964C475.073 118.132 474.744 118.41 474.513 118.762C474.281 119.115 474.157 119.527 474.156 119.949C474.307 120.685 474.728 121.337 475.336 121.779C477.169 123.444 479.228 124.843 481.451 125.935C482.123 126.2 482.735 126.595 483.252 127.098C483.505 127.353 483.668 127.683 483.715 128.039C483.763 128.394 483.693 128.756 483.516 129.068C483.003 129.781 481.824 129.812 481.436 130.619C480.924 131.627 482.212 132.619 483.329 132.805C484.517 133.008 485.737 132.896 486.868 132.48C487.66 132.073 488.526 131.83 489.414 131.766C490.291 131.954 491.117 132.33 491.835 132.867C494.287 134.263 501.908 134.31 501.427 130.06C500.977 126.121 495.591 122.213 492.456 120.585Z" fill="#F7AF87"/>
<path d="M454.953 154.777C454.953 154.777 489.271 168.905 493.197 168.176C497.124 167.447 490.776 133.608 490.776 133.608L502.479 128.258C502.479 128.258 528.865 180.521 507.26 188.12C493.899 192.587 479.423 192.434 466.159 187.686L454.953 154.777Z" fill="#ffff"/>
<path d="M473.213 135.159C473.092 138.195 472.375 141.177 471.102 143.937C469.856 145.993 468.149 147.731 466.115 149.015C464.081 150.299 461.777 151.093 459.383 151.334C457.639 151.447 455.906 151.69 454.199 152.063C453.408 152.225 452.669 152.58 452.049 153.097C451.429 153.614 450.946 154.277 450.645 155.025C449.263 158.375 447.835 161.771 443.381 160.639C442.963 160.546 442.556 160.406 442.17 160.22C440.77 159.564 439.51 158.642 438.461 157.507C437.154 156.185 436.017 154.705 435.077 153.102C434.591 152.36 434.263 151.526 434.115 150.652C434.023 149.578 434.15 148.496 434.487 147.473C436.039 141.269 436.288 134.244 438.492 128.196C440.748 122.065 445.059 116.903 450.691 113.587C456.264 110.346 464.009 110.299 468.743 114.719C471.333 117.31 472.973 120.697 473.399 124.334C473.772 127.937 473.709 131.571 473.213 135.159Z" fill="#F7AF87"/>
<path d="M435.46 127.408C435.755 124.492 435.739 121.53 436.314 118.661C436.748 115.73 438.218 113.051 440.458 111.109C441.02 110.662 441.648 110.307 442.32 110.054C442.926 109.837 443.562 109.713 444.183 109.542C446.007 108.892 447.747 108.028 449.367 106.968C451.823 105.497 454.51 104.449 457.314 103.866C459.209 103.577 461.124 103.442 463.041 103.463C466.559 103.401 470.093 103.37 473.642 103.37C474.475 103.308 475.311 103.446 476.079 103.773C476.923 104.294 477.538 105.114 477.802 106.069C478.477 108.208 478.477 110.504 477.802 112.644C477.115 114.761 476.204 116.799 475.086 118.723C474.54 119.936 473.771 121.036 472.819 121.965C471.997 120.538 471.267 119.065 470.522 117.576C468.148 120.042 464.407 120.677 460.992 120.414C457.578 120.15 454.225 119.266 450.81 119.22C449.998 119.134 449.177 119.208 448.394 119.44C447.611 119.672 446.882 120.055 446.247 120.569C445.482 121.459 444.949 122.525 444.695 123.67C443.977 126.223 443.391 128.811 442.941 131.425C442.538 130.665 440.908 128.68 440.054 128.711C439.808 128.734 439.569 128.809 439.353 128.929C439.136 129.049 438.947 129.212 438.797 129.409C437.384 130.959 438.083 136.651 439.387 138.295C439.648 138.544 439.845 138.853 439.961 139.194C439.987 139.423 439.968 139.654 439.904 139.875C439.84 140.096 439.733 140.302 439.589 140.481C439.23 140.904 438.775 141.235 438.262 141.446C437.748 141.656 437.192 141.74 436.639 141.691C435.274 141.691 435.01 139.086 434.87 138.124C434.296 134.542 435.118 130.928 435.46 127.408Z" fill="#606060"/>
<path d="M440.91 133.95C440.718 133.549 440.632 133.106 440.661 132.662C440.693 132.218 440.646 131.772 440.522 131.344C440.38 130.952 440.098 130.626 439.73 130.429C439.624 130.399 439.511 130.399 439.404 130.429C439.314 130.467 439.234 130.527 439.172 130.602C439.11 130.678 439.067 130.768 439.047 130.863C438.504 132.563 438.564 134.398 439.218 136.059C439.304 136.356 439.456 136.631 439.663 136.862C439.87 137.093 440.126 137.274 440.413 137.392C440.666 137.443 440.928 137.43 441.174 137.354C441.421 137.278 441.645 137.142 441.825 136.958C442.07 136.7 442.237 136.379 442.308 136.031C442.379 135.683 442.352 135.322 442.229 134.989C441.965 134.368 441.236 134.508 440.91 133.95Z" fill="url(#paint5_linear_10814_151640)"/>
<path d="M454.194 152.033C453.403 152.195 452.664 152.551 452.044 153.068C451.423 153.584 450.941 154.247 450.639 154.995C449.258 158.345 447.83 161.742 443.375 160.609C442.957 160.517 442.551 160.376 442.165 160.191C441.788 159.869 441.482 159.473 441.265 159.028C441.065 158.504 440.974 157.946 440.995 157.387C441.017 156.827 441.15 156.278 441.389 155.771C441.927 154.468 442.832 153.349 443.995 152.55C445.158 151.752 446.528 151.308 447.939 151.273C449.124 151.328 450.303 151.484 451.462 151.739C452.176 151.832 453.014 151.739 453.666 151.816C453.855 151.85 454.035 151.924 454.194 152.033Z" fill="url(#paint6_linear_10814_151640)"/>
<g clip-path="url(#clip0_10814_151640)">
<path d="M157 270.245C162.319 254.812 167.639 239.619 172.761 225.15C179.065 228.526 185.172 232.385 191.477 234.796C205.465 240.584 220.043 241.548 234.819 240.102C243.291 239.378 251.565 236.967 259.445 233.349C261.81 232.144 264.174 230.697 266.144 228.768C271.857 223.462 271.463 215.504 265.75 210.44C261.021 206.341 255.702 204.894 250.186 203.929C233.243 200.794 216.3 201.276 199.16 202.964C186.355 203.929 173.746 206.582 161.334 211.164C161.334 171.615 161.334 132.549 161.334 93C208.42 93 255.505 93 302.788 93C302.788 108.675 302.788 124.108 302.788 140.024C271.266 140.024 239.547 140.024 207.829 140.024C207.829 145.812 207.829 151.117 207.829 156.664C211.769 156.181 215.512 155.94 219.255 155.458C234.228 154.011 249.398 153.77 264.371 156.181C274.812 157.869 284.86 160.522 294.316 166.31C311.85 177.161 320.322 196.212 318.746 220.81C317.366 240.584 308.895 255.053 295.892 266.146C282.299 277.721 267.326 284.714 251.171 288.09C229.303 292.672 208.026 290.02 186.749 282.785C177.292 279.65 168.23 275.309 158.97 271.451C158.379 271.21 157.788 270.728 157 270.245Z" fill="#2c97e4"/>
<path d="M161.07 270.245C166.39 254.812 171.709 239.619 176.831 225.15C183.135 228.526 189.243 232.385 195.547 234.796C209.535 240.584 224.114 241.548 238.889 240.102C247.361 239.378 255.635 236.967 263.516 233.349C265.88 232.144 268.244 230.697 270.214 228.768C275.927 223.462 275.533 215.504 269.82 210.44C265.092 206.341 259.773 204.894 254.256 203.929C237.313 200.794 220.37 201.276 203.231 202.964C190.425 203.929 177.816 206.582 165.405 211.164C165.405 171.615 165.405 132.549 165.405 93C212.49 93 259.576 93 306.858 93C306.858 108.675 306.858 124.108 306.858 140.024C275.336 140.024 243.618 140.024 211.899 140.024C211.899 145.812 211.899 151.117 211.899 156.664C215.839 156.181 219.582 155.94 223.326 155.458C238.298 154.011 253.468 153.77 268.441 156.181C278.883 157.869 288.93 160.522 298.387 166.31C315.92 177.161 324.392 196.212 322.816 220.81C321.437 240.584 312.965 255.053 299.963 266.146C286.369 277.721 271.396 284.714 255.241 288.09C233.373 292.672 212.096 290.02 190.819 282.785C181.362 279.65 172.3 275.309 163.04 271.451C162.449 271.21 161.858 270.728 161.07 270.245Z" fill="#2c97e4"/>
</g>
<defs>
<linearGradient id="paint0_linear_10814_151640" x1="455.637" y1="190.603" x2="297.641" y2="287.911" gradientUnits="userSpaceOnUse">
<stop stop-opacity="0"/>
<stop offset="0.99"/>
</linearGradient>
<linearGradient id="paint1_linear_10814_151640" x1="577.838" y1="194.418" x2="90.3949" y2="174.627" gradientUnits="userSpaceOnUse">
<stop stop-opacity="0"/>
<stop offset="0.99"/>
</linearGradient>
<linearGradient id="paint2_linear_10814_151640" x1="778.002" y1="194.418" x2="290.559" y2="174.627" gradientUnits="userSpaceOnUse">
<stop stop-opacity="0"/>
<stop offset="0.99"/>
</linearGradient>
<linearGradient id="paint3_linear_10814_151640" x1="520.95" y1="98.5318" x2="381.073" y2="248.396" gradientUnits="userSpaceOnUse">
<stop stop-opacity="0"/>
<stop offset="0.99"/>
</linearGradient>
<linearGradient id="paint4_linear_10814_151640" x1="501.073" y1="214.765" x2="480.587" y2="118.048" gradientUnits="userSpaceOnUse">
<stop stop-opacity="0"/>
<stop offset="0.99"/>
</linearGradient>
<linearGradient id="paint5_linear_10814_151640" x1="439.296" y1="134.167" x2="443.315" y2="132.769" gradientUnits="userSpaceOnUse">
<stop stop-opacity="0"/>
<stop offset="0.99"/>
</linearGradient>
<linearGradient id="paint6_linear_10814_151640" x1="440.364" y1="149.707" x2="464.08" y2="169.158" gradientUnits="userSpaceOnUse">
<stop stop-opacity="0"/>
<stop offset="0.99"/>
</linearGradient>
<clipPath id="clip0_10814_151640">
<rect width="204" height="203" fill="white" transform="translate(119 87.3594)"/>
</clipPath>
</defs>
</svg>
